<?xml version="1.0" encoding="utf-8"?>
<!-- Generator: Adobe Illustrator 19.0.0, SVG Export Plug-In . SVG Version: 6.00 Build 0)  -->
<svg version="1.1" id="Layer_1" xmlns="http://www.w3.org/2000/svg" xmlns:xlink="http://www.w3.org/1999/xlink" x="0px" y="0px"
	 viewBox="0 0 44 44" style="enable-background:new 0 0 44 44;" xml:space="preserve">
<style type="text/css">
	.st0{fill:#FFFFFF;}
</style>
<g id="Right_Arrow_3">
	<g id="XMLID_90_">
		<path id="XMLID_91_" class="st0" d="M22,0C9.8,0,0,9.8,0,22s9.8,22,22,22s22-9.8,22-22S34.2,0,22,0z M22,42C11,42,2,33,2,22
			C2,11,11,2,22,2s20,9,20,20C42,33,33,42,22,42z M19.7,10.3C19.5,10.1,19.3,10,19,10c-0.6,0-1,0.4-1,1c0,0.3,0.1,0.5,0.3,0.7
			L27.6,22l-9.4,10.3C18.1,32.5,18,32.7,18,33c0,0.6,0.4,1,1,1c0.3,0,0.5-0.1,0.7-0.3l10-11c0.2-0.2,0.3-0.4,0.3-0.7
			c0-0.3-0.1-0.5-0.3-0.7L19.7,10.3z"/>
	</g>
</g>
</svg>
